<svg xmlns="http://www.w3.org/2000/svg" viewBox="0 0 860 560" fill="none">
  <path
    d="M118 168
       C168 132, 236 126, 294 154
       C340 176, 360 212, 392 230
       C430 252, 472 226, 506 198
       C544 166, 596 146, 648 160
       C712 178, 724 238, 696 274
       C668 310, 614 308, 588 340
       C560 374, 584 420, 534 446
       C486 470, 428 448, 394 420
       C360 390, 340 344, 298 328
       C256 312, 202 324, 168 298
       C130 268, 112 214, 118 168
       Z"
    stroke="#ffffff"
    stroke-width="16"
    stroke-linecap="round"
    stroke-linejoin="round"
  />
  <path
    d="M118 168
       C168 132, 236 126, 294 154
       C340 176, 360 212, 392 230
       C430 252, 472 226, 506 198
       C544 166, 596 146, 648 160
       C712 178, 724 238, 696 274
       C668 310, 614 308, 588 340
       C560 374, 584 420, 534 446
       C486 470, 428 448, 394 420
       C360 390, 340 344, 298 328
       C256 312, 202 324, 168 298
       C130 268, 112 214, 118 168
       Z"
    stroke="#1d4ed8"
    stroke-opacity="0.65"
    stroke-width="7"
    stroke-linecap="round"
    stroke-linejoin="round"
  />
  <path
    d="M214 168
       C258 150, 300 168, 336 188
       M450 226
       C494 208, 538 182, 582 178
       M588 340
       C548 352, 528 386, 518 420
       M344 346
       C310 336, 274 336, 240 344"
    stroke="#00d2be"
    stroke-opacity="0.45"
    stroke-width="8"
    stroke-linecap="round"
  />
</svg>
